# xmcd
#
# Track frame offsets:
# 150
# 75402
# 121087
# 220937
# 300310
#
# Disc length: 4459 seconds
#
#
# Revision: 0
# Processed by: cddbd v1.5.2PL0 Copyright (c) Steve Scherf et al.
# Submitted via: FreeRIP 2.96 
#
DISCID=30116905
DTITLE=Sayers, Dorothy Leigh - Der Tote in der Badewanne
DYEAR=2001
DGENRE=Speech
TTITLE0=06 - 1 Meter 63 sagte Lord Peter
TTITLE1=07 - Mr John P Milligan
TTITLE2=08 - Mr Parker
TTITLE3=09 - Als leichte Reiselektüre
TTITLE4=10 - An sich passte es Parker
EXTD=gelesen von Christian Brückner
EXTT0=
EXTT1=
EXTT2=
EXTT3=
EXTT4=
PLAYORDER=
